# xmcd
#
# Track frame offsets: 
#        150
#        21632
#        50546
#        70776
#        90788
#        113385
#        133159
#        142111
#        159561
#        181103
#        198395
#        218019
#
# Disc length: 3231 seconds
#
# Revision: 6
# Processed by: cddbd v1.4PL0 Copyright (c) Steve Scherf et al.
# Submitted via: ExactAudioCopy v0.90b4
#
DISCID=a30c9d0c
DTITLE=Radiohead - OK Computer
DYEAR=1997
DGENRE=Rock
TTITLE0=Airbag
TTITLE1=Paranoid Android
TTITLE2=Subterranean Homesick Alien
TTITLE3=Exit Music (For A Film)
TTITLE4=Let Down
TTITLE5=Karma Police
TTITLE6=Fitter Happier
TTITLE7=Electioneering
TTITLE8=Climbing Up The Walls
TTITLE9=No Surprises
TTITLE10=Lucky
TTITLE11=The Tourist
EXTD=
EXTT0=
EXTT1=
EXTT2=
EXTT3=
EXTT4=
EXTT5=
EXTT6=
EXTT7=
EXTT8=
EXTT9=
EXTT10=
EXTT11=
PLAYORDER=
